<svg preserveAspectRatio="none" width="100%" height="100%" overflow="visible" style="display: block;" viewBox="0 0 563 867" fill="none" xmlns="http://www.w3.org/2000/svg">
<g id="Vector">
<path d="M532.205 587.897H563L522.729 509.214C465.087 396.385 385.335 332.548 301.635 332.548H261.365C178.454 332.548 98.7027 396.385 40.2707 509.214L0 587.897H30.7952C113.705 587.897 193.457 524.06 251.889 411.231L281.895 353.332C264.523 552.267 113.705 867 113.705 867H451.663C451.663 867 302.425 556.721 283.474 357.786L311.111 412.716C368.753 524.06 448.505 587.897 532.205 587.897Z" fill="var(--fill-0, #111111)"/>
<path d="M256.627 216.75L281.105 169.243L305.584 216.75C352.961 310.279 419.289 362.24 487.986 362.24H513.254L480.09 296.918C432.713 203.389 366.384 151.428 297.687 151.428H264.523C195.826 151.428 130.288 203.389 82.1207 296.918L48.9566 363.724H74.2245C142.922 363.724 209.25 310.279 256.627 216.75Z" fill="var(--fill-0, #111111)"/>
<path d="M261.365 53.4452L281.105 14.8459L300.846 53.4452C339.537 129.159 393.232 172.212 449.295 172.212H469.825L442.978 118.767C404.286 43.0531 350.592 0 294.529 0H267.682C211.619 0 157.924 43.0531 119.233 118.767L92.3858 172.212H112.916C168.979 172.212 222.673 129.159 261.365 53.4452Z" fill="var(--fill-0, #111111)"/>
</g>
</svg>
